# Max2Obj Version 4.0 Mar 10th, 2001
#
mtllib ./Mickey Mouse.mtl
g
# object (null) to come ...
#
v  27.591814 173.004517 -51.917446
v  27.466257 170.565002 -63.279282
v  23.085876 169.860291 -65.532150
v  20.654060 170.565002 -61.710033
v  27.433809 168.307861 -70.480515
v  23.689428 167.988617 -71.350204
v  19.102272 167.988617 -70.293510
v  16.378210 168.307861 -67.933762
v  20.730499 167.098724 -72.932053
v  27.422995 165.328705 -77.067635
v  27.422995 161.354004 -83.282234
v  22.491341 161.285889 -83.216805
v  23.334892 165.192444 -77.269386
v  17.705841 161.217712 -82.617027
v  19.442387 165.056183 -77.045326
v  8.903666 161.354004 -79.016129
v  12.518000 165.328705 -73.634140
v  15.941064 165.192444 -75.566154

vt  0.000000 1.000000 0.000000
vt  0.000000 0.958333 0.000000
vt  0.017361 0.930556 0.000000
vt  0.020833 0.958333 0.000000
vt  0.000000 0.916667 0.000000
vt  0.015408 0.900608 0.000000
vt  0.033366 0.900391 0.000000
vt  0.041667 0.916667 0.000000
vt  0.027079 0.887635 0.000000
vt  0.000000 0.875000 0.000000
vt  0.000000 0.833333 0.000000
vt  0.018663 0.828993 0.000000
vt  0.016493 0.866319 0.000000
vt  0.037354 0.826497 0.000000
vt  0.032281 0.861762 0.000000
vt  0.077854 0.829210 0.000000
vt  0.060330 0.873264 0.000000
vt  0.046658 0.865451 0.000000
vt  0.056098 0.827691 0.000000
vt  0.083333 1.000000 0.000000
vt  0.083333 0.958333 0.000000
vt  0.100694 0.930556 0.000000
vt  0.104167 0.958333 0.000000
vt  0.083333 0.916667 0.000000
vt  0.098470 0.900391 0.000000
vt  0.116699 0.900391 0.000000
vt  0.125000 0.916667 0.000000
vt  0.110291 0.887539 0.000000
vt  0.081163 0.873264 0.000000
vt  0.100369 0.827691 0.000000
vt  0.098741 0.865451 0.000000


vn  -0.004955 0.097663 -0.020915
vn  -0.004955 0.097663 -0.020915
vn  -0.004955 0.097663 -0.020915
vn  -0.004702 0.097658 -0.020997
vn  -0.001190 0.095417 -0.029902
vn  -0.001190 0.095417 -0.029902
vn  -0.013540 0.095544 -0.026230
vn  -0.011814 0.095676 -0.026582
vn  -0.011494 0.094211 -0.031500
vn  -0.001878 0.084228 -0.053871
vn  -0.001878 0.084228 -0.053871
vn  -0.001878 0.084228 -0.053871
vn  -0.000077 0.083587 -0.054893
vn  -0.007954 0.083831 -0.053936
vn  -0.006093 0.083074 -0.055332
vn  -0.023250 0.085043 -0.047192
vn  -0.023250 0.085043 -0.047192
vn  -0.023250 0.085043 -0.047192
vn  -0.022071 0.084401 -0.048881
vn  -0.013257 0.097973 -0.015015
vn  -0.013257 0.097973 -0.015015
vn  -0.013257 0.097973 -0.015015
vn  -0.012920 0.097955 -0.015422
vn  -0.013886 0.095773 -0.025193

g (null)
usemtl Material
s 0
f 1/1/1 2/2/2 3/3/3
f 3/3/3 4/4/4 1/1/1
f 2/2/2 5/5/5 6/6/6
f 6/6/6 3/3/3 2/2/2
f 4/4/4 3/3/3 7/7/7
f 7/7/7 8/8/8 4/4/4
f 3/3/3 6/6/6 9/9/9
f 9/9/9 7/7/7 3/3/3
f 10/10/10 11/11/11 12/12/12
f 12/12/12 13/13/13 10/10/10
f 13/13/13 12/12/12 14/14/14
f 14/14/14 15/15/15 13/13/13
f 5/5/5 10/10/10 13/13/13
f 13/13/13 6/6/6 5/5/5
f 6/6/6 13/13/13 15/15/15